#define color_arrowdown_width 16
#define color_arrowdown_height 8
static unsigned char color_arrowdown_bits[] = {
   0x00, 0x00, 0xf0, 0x07, 0xe0, 0x03, 0xe0, 0x03, 0xc0, 0x01, 0xc0, 0x01,
   0x80, 0x00, 0x80, 0x00};
