#define color_arrowup_width 16
#define color_arrowup_height 8
static unsigned char color_arrowup_bits[] = {
   0x80, 0x00, 0x80, 0x00, 0xc0, 0x01, 0xc0, 0x01, 0xe0, 0x03, 0xe0, 0x03,
   0xf0, 0x07, 0x00, 0x00};
