#define filledRect_width 24
#define filledRect_height 24
static unsigned char filledRect_bits[] = {
   0x00, 0x00, 0x00, 0x00, 0x00, 0x00, 0x00, 0x00, 0x00, 0x00, 0x00, 0x00,
   0x00, 0x00, 0x00, 0x00, 0x00, 0x00, 0xf0, 0xff, 0x3f, 0xf0, 0xff, 0x3f,
   0x30, 0x00, 0x30, 0xb0, 0xff, 0x37, 0xb0, 0xff, 0x37, 0xb0, 0xff, 0x37,
   0xb0, 0xff, 0x37, 0xb0, 0xff, 0x37, 0xb0, 0xff, 0x37, 0xb0, 0xff, 0x37,
   0x30, 0x00, 0x30, 0xf0, 0xff, 0x3f, 0xf0, 0xff, 0x3f, 0x00, 0x00, 0x00,
   0x00, 0x00, 0x00, 0x00, 0x00, 0x00, 0x00, 0x00, 0x00, 0x00, 0x00, 0x00};
