#define filledOval_width 24
#define filledOval_height 24
static unsigned char filledOval_bits[] = {
   0x00, 0x00, 0x00, 0x00, 0x00, 0x00, 0x00, 0x00, 0x00, 0x00, 0x00, 0x00,
   0x00, 0x00, 0x00, 0x00, 0xfc, 0x00, 0x80, 0xff, 0x07, 0xc0, 0x03, 0x0f,
   0x60, 0x78, 0x18, 0x60, 0xff, 0x1b, 0x30, 0xff, 0x33, 0xb0, 0xff, 0x37,
   0x30, 0xff, 0x33, 0x60, 0xff, 0x1b, 0x60, 0x78, 0x18, 0xc0, 0x03, 0x0f,
   0x80, 0xff, 0x07, 0x00, 0xfc, 0x00, 0x00, 0x00, 0x00, 0x00, 0x00, 0x00,
   0x00, 0x00, 0x00, 0x00, 0x00, 0x00, 0x00, 0x00, 0x00, 0x00, 0x00, 0x00};
