#define filledPolygon_width 24
#define filledPolygon_height 24
static unsigned char filledPolygon_bits[] = {
   0x00, 0x00, 0x00, 0x00, 0x00, 0x00, 0x00, 0xc0, 0xff, 0x00, 0xc0, 0xff,
   0x00, 0xc0, 0xc0, 0x00, 0xc0, 0xde, 0x00, 0xc0, 0xde, 0x00, 0xc0, 0xde,
   0xfc, 0xc0, 0xde, 0xfc, 0xc7, 0xde, 0x8c, 0xff, 0xde, 0x2c, 0xfc, 0xde,
   0xec, 0x01, 0xde, 0xec, 0xff, 0xdf, 0xec, 0xff, 0xdf, 0xec, 0xff, 0xcf,
   0x0c, 0xff, 0xe3, 0x7c, 0xf8, 0xf8, 0xf8, 0x23, 0x3e, 0xc0, 0x8f, 0x0f,
   0x00, 0xfe, 0x03, 0x00, 0xf8, 0x00, 0x00, 0x00, 0x00, 0x00, 0x00, 0x00};
