#define hollowselectmask_width 24
#define hollowselectmask_height 24
static unsigned char hollowselectmask_bits[] = {
   0x00, 0x00, 0x00, 0x00, 0x0e, 0x00, 0x00, 0x0e, 0x00, 0x00, 0x1f, 0x00,
   0x00, 0x1f, 0x00, 0x80, 0x3b, 0x00, 0x80, 0x3b, 0x00, 0xc0, 0x71, 0x00,
   0xc0, 0x71, 0x00, 0xe0, 0xe0, 0x00, 0xe0, 0xe0, 0x00, 0x70, 0xc0, 0x01,
   0xf0, 0xff, 0x01, 0xf8, 0xff, 0x03, 0x78, 0xdf, 0x03, 0x38, 0x9f, 0x03,
   0x00, 0x1f, 0x00, 0x00, 0x1f, 0x00, 0x00, 0x1f, 0x00, 0x00, 0x1f, 0x00,
   0x00, 0x1f, 0x00, 0x00, 0x1f, 0x00, 0x00, 0x1f, 0x00, 0x00, 0x00, 0x00};
