#define out_width 19
#define out_height 19
#define out_x_hot 9
#define out_y_hot 9
static unsigned char out_bits[] = {
   0x00, 0x02, 0x00, 0x00, 0x02, 0x00, 0x00, 0x02, 0x00, 0x00, 0x02, 0x00,
   0xc0, 0x1a, 0x00, 0x80, 0x0f, 0x00, 0x10, 0x47, 0x00, 0x30, 0x62, 0x00,
   0x60, 0x30, 0x00, 0xff, 0xf8, 0x07, 0x60, 0x30, 0x00, 0x30, 0x62, 0x00,
   0x10, 0x47, 0x00, 0x80, 0x0f, 0x00, 0xc0, 0x1a, 0x00, 0x00, 0x02, 0x00,
   0x00, 0x02, 0x00, 0x00, 0x02, 0x00, 0x00, 0x02, 0x00};
