/* XPM */
static char * lasso_xpm[] = {
"24 24 3 1",
" 	c None",
".	c #D0D4D0",
"+	c #000000",
"........................",
"........................",
"........................",
"........................",
"........................",
"...........++++++++.....",
"........+++........++...",
"......++.............+..",
".....+...............+..",
"....+...............+...",
"....+..............+....",
"....+.............+.....",
"....+...+.......++......",
".....+.+.+....++........",
"......++..++++..........",
"......+.+.+.............",
".......+++..............",
".........+..............",
".........+..............",
"........++..............",
".......++...............",
"........................",
"........................",
"........................"};
