#define letter_width 24
#define letter_height 24
static unsigned char letter_bits[] = {
   0x00, 0x00, 0x00, 0x00, 0x1c, 0x00, 0x00, 0x1c, 0x00, 0x00, 0x3e, 0x00,
   0x00, 0x3e, 0x00, 0x00, 0x3e, 0x00, 0x00, 0x77, 0x00, 0x00, 0x77, 0x00,
   0x00, 0x63, 0x00, 0x80, 0xe3, 0x00, 0x80, 0xe3, 0x00, 0x80, 0xc1, 0x00,
   0xc0, 0xc1, 0x01, 0xc0, 0xc1, 0x01, 0xc0, 0xff, 0x01, 0xe0, 0xff, 0x03,
   0xe0, 0xff, 0x03, 0xe0, 0x80, 0x03, 0x70, 0x00, 0x07, 0x70, 0x00, 0x07,
   0x70, 0x00, 0x07, 0x38, 0x00, 0x0e, 0x38, 0x00, 0x0e, 0x00, 0x00, 0x00};
