#define line_width 24
#define line_height 24
static char line_bits[] = {
   0x00, 0x00, 0x00, 0x00, 0x00, 0x00, 0x00, 0x00, 0x00, 0x00, 0x00, 0x00,
   0x00, 0x00, 0x00, 0x00, 0x00, 0x00, 0x18, 0x00, 0x00, 0x30, 0x00, 0x00,
   0xe0, 0x00, 0x00, 0x80, 0x01, 0x00, 0x00, 0x03, 0x00, 0x00, 0x0e, 0x00,
   0x00, 0x18, 0x00, 0x00, 0x30, 0x00, 0x00, 0xe0, 0x00, 0x00, 0x80, 0x01,
   0x00, 0x00, 0x03, 0x00, 0x00, 0x0e, 0x00, 0x00, 0x18, 0x00, 0x00, 0x30,
   0x00, 0x00, 0x00, 0x00, 0x00, 0x00, 0x00, 0x00, 0x00, 0x00, 0x00, 0x00};
