#define lines_width 24
#define lines_height 24
static char lines_bits[] = {
   0x00, 0x00, 0x00, 0x00, 0x00, 0x00, 0x00, 0x00, 0x00, 0x00, 0x00, 0x00,
   0x00, 0x60, 0x00, 0x00, 0xfe, 0x00, 0xe0, 0xdf, 0x00, 0xfc, 0x81, 0x01,
   0x1c, 0x80, 0x01, 0x00, 0x00, 0x03, 0x00, 0x00, 0x03, 0x00, 0x00, 0x03,
   0x00, 0x00, 0x06, 0x00, 0x00, 0x06, 0x00, 0x00, 0x0c, 0x00, 0x00, 0x0c,
   0x00, 0x00, 0x0c, 0x00, 0x00, 0x18, 0x00, 0x00, 0x18, 0x00, 0x00, 0x30,
   0x00, 0x00, 0x30, 0x00, 0x00, 0x00, 0x00, 0x00, 0x00, 0x00, 0x00, 0x00};
