/* XPM */
static char * On_marquee_xpm[] = {
"24 24 3 1",
" 	c None",
".	c #d0d4d0",
"+	c #000000",
"........................",
"........................",
"........................",
"........................",
"........................",
"...+++.++.++.++.++.+++..",
"...+.................+..",
"...+.................+..",
"........................",
"...+.................+..",
"...+.................+..",
"........................",
"...+.................+..",
"...+.................+..",
"........................",
"...+.................+..",
"...+.................+..",
"...+++.++.++.++.++.+++..",
"........................",
"........................",
"........................",
"........................",
"........................",
"........................"};
