/* XPM */
static char * drawing_xpm[] = {
"24 24 4 1",
" 	c #FFFFCC",
".	c #FFFFFF",
"+	c #7F7F7F",
"@	c #000000",
"                        ",
"                        ",
"                        ",
"       +@@+             ",
"      @@@@@+            ",
"     @@@  @@            ",
"    +@@   @@            ",
"    @@+   @@            ",
"    @@   +@+            ",
"         @@             ",
"        +@+             ",
"        @@              ",
"       +@+              ",
"       @@      +@@+     ",
"       @@     +@@@@@    ",
"       @@     @@  +@+   ",
"       +@+   +@+   @@   ",
"        @@  +@@    @@   ",
"        +@@@@@    +@+   ",
"         +@@+    +@@    ",
"                 @@     ",
"                        ",
"                        ",
"                        "};
