/* XPM */
static char * On_grapharc_xpm[] = {
"24 24 3 1",
" 	c None",
".	c #FFFFCC",
"+	c #000000",
"........................",
"........................",
"..............+++++++++.",
"..............+.......+.",
"..............+.......+.",
"..............+..++...+.",
"...............++++...+.",
".............+++++....+.",
"...........+++++++....+.",
".............++++.....+.",
"............+++++.....+.",
"...........+++.+.++++++.",
"..+++++++.+++..+........",
"..+......+++............",
"..+.....+++.............",
"..+....+++..............",
"..+...+++.+.............",
"..+...++..+.............",
"..+.......+.............",
"..+.......+.............",
"..+.......+.............",
"..+++++++++.............",
"........................",
"........................"};
