/* XPM */
static char * On_navline_xpm[] = {
"24 24 3 1",
" 	c None",
".	c #FFFFCC",
"+	c #000000",
"........................",
"........................",
"........................",
".......+++++++++........",
"......+.........+.......",
"....++...........++..+++",
"....+.............+...++",
"...+...............+.+++",
"..+...............+++...",
"..+.............+++.+...",
"..+...........+++...+...",
"..+.........+++.....+...",
"..+........++.......+...",
"..+.................+...",
"..+.................+...",
"..+.................+...",
"..+.................+...",
"...+...............+....",
"....+.............+.....",
"....++...........++.....",
"......+.........+.......",
".......+++++++++........",
"........................",
"........................"};
