#define out_width 19
#define out_height 19
#define out_x_hot 9
#define out_y_hot 9
static unsigned char out_bits[] = {
   0x00, 0x02, 0x00, 0x00, 0x07, 0x00, 0x80, 0x0f, 0x00, 0xc0, 0x1a, 0x00,
   0x00, 0x02, 0x00, 0x00, 0x02, 0x00, 0x08, 0x82, 0x00, 0x0c, 0x82, 0x01,
   0x06, 0x00, 0x03, 0xff, 0xf8, 0x07, 0x06, 0x00, 0x03, 0x0c, 0x82, 0x01,
   0x08, 0x82, 0x00, 0x00, 0x02, 0x00, 0x00, 0x02, 0x00, 0xc0, 0x1a, 0x00,
   0x80, 0x0f, 0x00, 0x00, 0x07, 0x00, 0x00, 0x02, 0x00};
