#define oval_width 24
#define oval_height 24
static unsigned char oval_bits[] = {
   0x00, 0x00, 0x00, 0x00, 0x00, 0x00, 0x00, 0x00, 0x00, 0x00, 0x00, 0x00,
   0x00, 0x00, 0x00, 0x00, 0xfc, 0x00, 0x80, 0xff, 0x07, 0xc0, 0x03, 0x0f,
   0x60, 0x00, 0x18, 0x60, 0x00, 0x18, 0x30, 0x00, 0x30, 0x30, 0x00, 0x30,
   0x30, 0x00, 0x30, 0x60, 0x00, 0x18, 0x60, 0x00, 0x18, 0xc0, 0x03, 0x0f,
   0x80, 0xff, 0x07, 0x00, 0xfc, 0x00, 0x00, 0x00, 0x00, 0x00, 0x00, 0x00,
   0x00, 0x00, 0x00, 0x00, 0x00, 0x00, 0x00, 0x00, 0x00, 0x00, 0x00, 0x00};
