#define polygon_width 24
#define polygon_height 24
static char polygon_bits[] = {
   0x00, 0x00, 0x00, 0x00, 0x00, 0x00, 0x00, 0xc0, 0xff, 0x00, 0xc0, 0xff,
   0x00, 0xc0, 0xc0, 0x00, 0xc0, 0xc0, 0x00, 0xc0, 0xc0, 0x00, 0xc0, 0xc0,
   0xfc, 0xc0, 0xc0, 0xfc, 0xc7, 0xc0, 0x0c, 0xff, 0xc0, 0x0c, 0xf8, 0xc0,
   0x0c, 0xc0, 0xc0, 0x0c, 0x00, 0xc0, 0x0c, 0x00, 0xc0, 0x0c, 0x00, 0xc0,
   0x1c, 0x00, 0xe0, 0x3c, 0x00, 0xf8, 0xf8, 0x01, 0x3e, 0xc0, 0x0f, 0x0f,
   0x00, 0xfe, 0x03, 0x00, 0xf8, 0x00, 0x00, 0x00, 0x00, 0x00, 0x00, 0x00};
