#define portal_width 24
#define portal_height 24
static char portal_bits[] = {
   0x00, 0xfc, 0x01, 0x00, 0x04, 0x01, 0x00, 0x34, 0x01, 0x00, 0x54, 0x01,
   0x00, 0x34, 0x01, 0x00, 0x14, 0x01, 0x00, 0x14, 0x01, 0x00, 0x00, 0x00,
   0xf0, 0xff, 0x3f, 0xf0, 0xff, 0x3f, 0x30, 0x00, 0x30, 0x30, 0x00, 0x30,
   0x30, 0x00, 0x30, 0x30, 0x00, 0x30, 0x30, 0x00, 0x30, 0x30, 0x00, 0x30,
   0x30, 0x00, 0x30, 0x30, 0x00, 0x30, 0x30, 0x00, 0x30, 0xf0, 0xff, 0x3f,
   0xf0, 0xff, 0x3f, 0x00, 0x00, 0x00, 0x00, 0x00, 0x00, 0x00, 0x00, 0x00};
