#define selectmask_width 24
#define selectmask_height 24
static unsigned char selectmask_bits[] = {
   0x00, 0x00, 0x00, 0x00, 0x0e, 0x00, 0x00, 0x0e, 0x00, 0x00, 0x1f, 0x00,
   0x00, 0x1f, 0x00, 0x80, 0x3f, 0x00, 0x80, 0x3f, 0x00, 0xc0, 0x7f, 0x00,
   0xc0, 0x7f, 0x00, 0xe0, 0xff, 0x00, 0xe0, 0xff, 0x00, 0xf0, 0xff, 0x01,
   0xf0, 0xff, 0x01, 0xf8, 0xff, 0x03, 0x78, 0xdf, 0x03, 0x38, 0x9f, 0x03,
   0x00, 0x1f, 0x00, 0x00, 0x1f, 0x00, 0x00, 0x1f, 0x00, 0x00, 0x1f, 0x00,
   0x00, 0x1f, 0x00, 0x00, 0x1f, 0x00, 0x00, 0x1f, 0x00, 0x00, 0x1f, 0x00};
